HIERARCHY
ROOT Hips
{
	OFFSET 0.000000 0.000000 0.000000
	CHANNELS 6 Xposition Yposition Zposition Xrotation Yrotation Zrotation
	JOINT C_ctrl
	{
		OFFSET 0.000000 35.040482 -0.000011
		CHANNELS 3 Xrotation Yrotation Zrotation
		JOINT Bip01
		{
			OFFSET -41.537640 41.789009 -0.000007
			CHANNELS 3 Xrotation Yrotation Zrotation
			JOINT Bip01_Pelvis
			{
				OFFSET -2.462887 0.000000 0.000000
				CHANNELS 3 Xrotation Yrotation Zrotation
				JOINT BN_Tail_01
				{
					OFFSET -11.399368 7.351341 -0.000013
					CHANNELS 3 Xrotation Yrotation Zrotation
					JOINT BN_Tail_02
					{
						OFFSET -11.365196 -0.343025 0.000012
						CHANNELS 3 Xrotation Yrotation Zrotation
						JOINT BN_Tail_03
						{
							OFFSET -15.076256 -0.454979 0.000017
							CHANNELS 3 Xrotation Yrotation Zrotation
							JOINT BN_Tail_04
							{
								OFFSET -17.395691 -0.525002 0.000016
								CHANNELS 3 Xrotation Yrotation Zrotation
								JOINT BN_Tail_05
								{
									OFFSET -16.699837 -0.504005 0.000016
									CHANNELS 3 Xrotation Yrotation Zrotation
									End Site
									{
										OFFSET 0.503998 -16.699829 0.000067
									}
								}
							}
						}
					}
				}
				JOINT Bip01_Spine
				{
					OFFSET 8.297798 5.916809 -0.000020
					CHANNELS 3 Xrotation Yrotation Zrotation
					JOINT Bip01_R_Thigh
					{
						OFFSET -8.297779 -5.916794 10.541781
						CHANNELS 3 Xrotation Yrotation Zrotation
						JOINT Bip01_R_Calf
						{
							OFFSET 5.631542 -22.906792 0.862690
							CHANNELS 3 Xrotation Yrotation Zrotation
							JOINT Bip01_R_HorseLink
							{
								OFFSET -16.984341 -19.231926 -3.555767
								CHANNELS 3 Xrotation Yrotation Zrotation
								JOINT Bip01_R_Foot
								{
									OFFSET 4.290367 -24.783146 0.578056
									CHANNELS 3 Xrotation Yrotation Zrotation
									JOINT Bip01_R_Toe0
									{
										OFFSET 3.561211 -5.815116 0.760802
										CHANNELS 3 Xrotation Yrotation Zrotation
										JOINT Bip01_R_Toe0Nub
										{
											OFFSET 16.135469 0.002017 1.534789
											CHANNELS 3 Xrotation Yrotation Zrotation
											End Site
											{
												OFFSET -0.000002 16.208284 -0.000056
											}
										}
									}
								}
							}
						}
					}
					JOINT Bip01_L_Thigh
					{
						OFFSET -8.297813 -5.916832 -10.541739
						CHANNELS 3 Xrotation Yrotation Zrotation
						JOINT Bip01_L_Calf
						{
							OFFSET 5.631535 -22.906792 -0.862625
							CHANNELS 3 Xrotation Yrotation Zrotation
							JOINT Bip01_L_HorseLink
							{
								OFFSET -16.984318 -19.231949 3.555875
								CHANNELS 3 Xrotation Yrotation Zrotation
								JOINT Bip01_L_Foot
								{
									OFFSET 4.290367 -24.783169 -0.577965
									CHANNELS 3 Xrotation Yrotation Zrotation
									JOINT Bip01_L_Toe0
									{
										OFFSET 3.561245 -5.815111 -0.760799
										CHANNELS 3 Xrotation Yrotation Zrotation
										JOINT Bip01_L_Toe0Nub
										{
											OFFSET 6.574303 -0.000005 -1.538561
											CHANNELS 3 Xrotation Yrotation Zrotation
											End Site
											{
												OFFSET 0.000004 -6.751935 0.000023
											}
										}
									}
								}
							}
						}
					}
					JOINT Bip01_Spine1
					{
						OFFSET 20.556803 -4.626213 -0.000025
						CHANNELS 3 Xrotation Yrotation Zrotation
						JOINT Saddle
						{
							OFFSET 17.608810 18.174690 -0.000143
							CHANNELS 3 Xrotation Yrotation Zrotation
							End Site
							{
								OFFSET -0.000063 -0.000061 -22.448387
							}
						}
						JOINT BN_center
						{
							OFFSET 10.743275 -13.417107 -0.172041
							CHANNELS 3 Xrotation Yrotation Zrotation
							End Site
							{
								OFFSET 22.434088 0.553078 -0.579614
							}
						}
						JOINT Bip01_Spine2
						{
							OFFSET 24.765072 -2.054115 -0.000032
							CHANNELS 3 Xrotation Yrotation Zrotation
							JOINT Handle
							{
								OFFSET 63.735676 16.430748 -16.052464
								CHANNELS 3 Xrotation Yrotation Zrotation
								JOINT IK_Chain01
								{
									OFFSET -4.713058 -6.020439 0.185448
									CHANNELS 3 Xrotation Yrotation Zrotation
									End Site
									{
										OFFSET -0.000023 -0.000023 -7.648071
									}
								}
							}
							JOINT BN_hair04_01
							{
								OFFSET 1.987491 16.256981 -2.049672
								CHANNELS 3 Xrotation Yrotation Zrotation
								JOINT BN_hair04_02
								{
									OFFSET -1.318762 -3.831451 -6.174704
									CHANNELS 3 Xrotation Yrotation Zrotation
									JOINT BN_hair04_03
									{
										OFFSET -0.827490 -5.886627 -5.656666
										CHANNELS 3 Xrotation Yrotation Zrotation
										End Site
										{
											OFFSET -2.658262 5.010620 -5.929780
										}
									}
								}
							}
							JOINT Bip01_Neck
							{
								OFFSET 25.574577 9.433014 -0.000084
								CHANNELS 3 Xrotation Yrotation Zrotation
								JOINT Bip01_R_Clavicle
								{
									OFFSET -16.535652 0.011192 6.705692
									CHANNELS 3 Xrotation Yrotation Zrotation
									JOINT Bip01_R_UpperArm
									{
										OFFSET 20.272621 -12.959984 2.510816
										CHANNELS 3 Xrotation Yrotation Zrotation
										JOINT Bip01_R_Forearm
										{
											OFFSET -13.633509 -15.503704 -0.653585
											CHANNELS 3 Xrotation Yrotation Zrotation
											JOINT Bip01_R_Hand
											{
												OFFSET 2.580030 -27.804676 -1.136415
												CHANNELS 3 Xrotation Yrotation Zrotation
												JOINT Bip01_R_Finger0
												{
													OFFSET -0.281744 -19.659061 -0.398649
													CHANNELS 3 Xrotation Yrotation Zrotation
													JOINT Bip01_Xtra02
													{
														OFFSET 4.152210 -5.712314 0.433813
														CHANNELS 3 Xrotation Yrotation Zrotation
														JOINT Bip01_Xtra02Nub
														{
															OFFSET 15.457960 0.041654 0.507982
															CHANNELS 3 Xrotation Yrotation Zrotation
															End Site
															{
																OFFSET -15.421730 -0.157725 -1.163459
															}
														}
													}
													JOINT Bip01_R_Finger0Nub
													{
														OFFSET 8.362326 -9.718440 -0.143142
														CHANNELS 3 Xrotation Yrotation Zrotation
														End Site
														{
															OFFSET -1.213036 -0.198171 9.872291
														}
													}
												}
											}
										}
									}
								}
								JOINT Bip01_L_Clavicle
								{
									OFFSET -16.535673 0.011162 -6.705583
									CHANNELS 3 Xrotation Yrotation Zrotation
									JOINT Bip01_L_UpperArm
									{
										OFFSET 20.272615 -12.959999 -2.510836
										CHANNELS 3 Xrotation Yrotation Zrotation
										JOINT Bip01_L_Forearm
										{
											OFFSET -13.633495 -15.503681 0.653678
											CHANNELS 3 Xrotation Yrotation Zrotation
											JOINT Bip01_L_Hand
											{
												OFFSET 2.579988 -27.804686 1.136487
												CHANNELS 3 Xrotation Yrotation Zrotation
												JOINT Bip01_L_Finger0
												{
													OFFSET -0.281765 -19.659058 0.398696
													CHANNELS 3 Xrotation Yrotation Zrotation
													JOINT Bip01_Xtra01
													{
														OFFSET 4.083549 -5.738758 -0.666714
														CHANNELS 3 Xrotation Yrotation Zrotation
														JOINT Bip01_Xtra01Nub
														{
															OFFSET 6.758158 -0.395525 -0.023239
															CHANNELS 3 Xrotation Yrotation Zrotation
															End Site
															{
																OFFSET 6.764923 -0.254147 -0.029908
															}
														}
													}
													JOINT Bip01_L_Finger0Nub
													{
														OFFSET -0.012636 -9.629153 0.045740
														CHANNELS 3 Xrotation Yrotation Zrotation
														End Site
														{
															OFFSET 0.988407 0.004791 8.293357
														}
													}
												}
											}
										}
									}
								}
								JOINT BN_hair03_01
								{
									OFFSET -5.894140 16.270622 -2.498433
									CHANNELS 3 Xrotation Yrotation Zrotation
									JOINT BN_hair03_02
									{
										OFFSET -0.189278 -7.800507 -6.219162
										CHANNELS 3 Xrotation Yrotation Zrotation
										JOINT BN_hair03_03
										{
											OFFSET 0.612345 -10.844475 -3.370718
											CHANNELS 3 Xrotation Yrotation Zrotation
											End Site
											{
												OFFSET -2.273296 2.862007 -10.769416
											}
										}
									}
								}
								JOINT Bip01_Neck1
								{
									OFFSET 9.383755 11.908699 -0.000007
									CHANNELS 3 Xrotation Yrotation Zrotation
									JOINT BN_hair02_01
									{
										OFFSET 9.126320 18.808022 -1.420810
										CHANNELS 3 Xrotation Yrotation Zrotation
										JOINT BN_hair02_02
										{
											OFFSET 0.393478 -5.181091 -5.248574
											CHANNELS 3 Xrotation Yrotation Zrotation
											JOINT BN_hair02_03
											{
												OFFSET 0.762280 -8.167076 -0.230047
												CHANNELS 3 Xrotation Yrotation Zrotation
												End Site
												{
													OFFSET -0.025837 -1.251419 -8.109770
												}
											}
										}
									}
									JOINT Bip01_Head
									{
										OFFSET 14.266129 10.475403 -0.000008
										CHANNELS 3 Xrotation Yrotation Zrotation
										JOINT BN_Reins_01
										{
											OFFSET 18.547455 -15.740112 -0.000035
											CHANNELS 3 Xrotation Yrotation Zrotation
											JOINT BN_Reins_02
											{
												OFFSET -5.372810 -5.884506 0.000028
												CHANNELS 3 Xrotation Yrotation Zrotation
												JOINT BN_Reins_03
												{
													OFFSET -6.395866 -15.947449 0.000070
													CHANNELS 3 Xrotation Yrotation Zrotation
													JOINT BN_Halter_R_01
													{
														OFFSET -1.234055 -3.096100 7.096737
														CHANNELS 3 Xrotation Yrotation Zrotation
														End Site
														{
															OFFSET 10.514435 -4.176861 -0.000004
														}
													}
													JOINT BN_Halter_L_01
													{
														OFFSET -1.234062 -3.096146 -7.096726
														CHANNELS 3 Xrotation Yrotation Zrotation
														End Site
														{
															OFFSET -10.514435 4.176865 -0.000000
														}
													}
													JOINT BN_Reins_04
													{
														OFFSET -6.737644 -16.971684 0.000074
														CHANNELS 3 Xrotation Yrotation Zrotation
														JOINT BN_Halter_R_02
														{
															OFFSET -4.688869 -11.781956 7.096771
															CHANNELS 3 Xrotation Yrotation Zrotation
															End Site
															{
																OFFSET 14.669624 -5.827511 -0.000006
															}
														}
														JOINT BN_Halter_L_02
														{
															OFFSET -4.688892 -11.782017 -7.096693
															CHANNELS 3 Xrotation Yrotation Zrotation
															End Site
															{
																OFFSET -14.669624 5.827507 -0.000002
															}
														}
														JOINT BN_Reins_05
														{
															OFFSET -6.822578 -16.971161 0.000074
															CHANNELS 3 Xrotation Yrotation Zrotation
															JOINT BN_Reins_06
															{
																OFFSET -6.140354 -15.095148 0.000066
																CHANNELS 3 Xrotation Yrotation Zrotation
																End Site
																{
																	OFFSET -15.095150 6.140352 -0.000002
																}
															}
														}
													}
												}
											}
										}
										JOINT BN_hair01_01
										{
											OFFSET 8.957344 8.870956 0.112121
											CHANNELS 3 Xrotation Yrotation Zrotation
											JOINT BN_hair01_02
											{
												OFFSET 6.002075 -2.962952 -3.121264
												CHANNELS 3 Xrotation Yrotation Zrotation
												End Site
												{
													OFFSET 5.917702 3.813591 -2.232396
												}
											}
										}
										JOINT BN_Eyebrow_R
										{
											OFFSET 11.795959 -0.430496 4.449781
											CHANNELS 3 Xrotation Yrotation Zrotation
											JOINT Bip01_Xtra06Nub
											{
												OFFSET 2.936661 -0.262573 3.246701
												CHANNELS 3 Xrotation Yrotation Zrotation
												End Site
												{
													OFFSET 2.768745 0.208199 3.394807
												}
											}
										}
										JOINT BN_Eyebrow_L
										{
											OFFSET 11.586395 -0.445618 -4.441728
											CHANNELS 3 Xrotation Yrotation Zrotation
											JOINT Bip01_Xtra05Nub
											{
												OFFSET 3.244698 -0.349442 -4.416700
												CHANNELS 3 Xrotation Yrotation Zrotation
												End Site
												{
													OFFSET 3.053162 0.072495 -4.564033
												}
											}
										}
										JOINT Bip01_R_Ear_01
										{
											OFFSET 7.142960 7.567184 4.311657
											CHANNELS 3 Xrotation Yrotation Zrotation
											JOINT Bip01_Xtra04Nub
											{
												OFFSET 9.464531 9.264214 1.682953
												CHANNELS 3 Xrotation Yrotation Zrotation
												End Site
												{
													OFFSET 8.448181 10.159340 1.910823
												}
											}
										}
										JOINT Bip01__L_Ear_01
										{
											OFFSET 7.214943 7.717056 -4.356771
											CHANNELS 3 Xrotation Yrotation Zrotation
											JOINT Bip01_Xtra03Nub
											{
												OFFSET 9.230225 8.944366 -2.322746
												CHANNELS 3 Xrotation Yrotation Zrotation
												End Site
												{
													OFFSET 8.170288 9.841324 -2.643566
												}
											}
										}
										JOINT Bip01_Jaw
										{
											OFFSET 9.196068 -4.110695 -0.000013
											CHANNELS 3 Xrotation Yrotation Zrotation
											JOINT Bip01_Ponytail1Nub
											{
												OFFSET 10.976463 -21.082108 -0.000053
												CHANNELS 3 Xrotation Yrotation Zrotation
												End Site
												{
													OFFSET 11.247093 -20.938980 0.000113
												}
											}
										}
										JOINT Bip01_HeadNub
										{
											OFFSET 29.954575 -18.249489 -0.000063
											CHANNELS 3 Xrotation Yrotation Zrotation
											End Site
											{
												OFFSET -9.198448 -13.366348 0.000168
											}
										}
									}
								}
							}
						}
					}
				}
			}
		}
	}
}
MOTION
Frames: 5
Frame Time: 0.033333
0.000000 0.000000 0.000000 0.000008 0.000000 -0.000000 -0.000000 0.000000 -0.000000 0.000000 0.000000 -0.000006 0.003491 -0.000000 -0.000008 1.388154 0.717106 28.201016 0.246053 -0.590729 20.982725 0.436249 -1.216624 16.047063 0.247804 -1.444240 8.074902 0.000301 -0.003451 6.031895 0.143672 0.000484 10.382443 -6.377798 5.671906 -5.954842 0.714344 0.016540 -3.620081 0.088819 0.004540 -0.450405 6.341735 -4.510416 0.242890 0.000729 -0.000020 -0.003715 0.000101 -0.000137 0.000004 1.166944 -4.088637 -25.336223 1.989659 0.287932 10.192569 -0.033938 -0.001822 -0.172218 -4.321977 3.693097 5.056075 -0.000871 0.000033 -0.003712 0.008859 -0.000620 0.038562 0.143184 -0.019006 -11.498069 0.917530 -0.020778 6.784392 -0.004860 -0.187310 0.020325 -0.052389 1.540616 -5.471445 0.000078 -0.000112 -0.000056 -0.000052 -0.014928 0.015042 -0.000044 0.000013 0.000017 -1.353665 0.416323 -0.223187 4.617630 -0.694433 0.251714 3.912571 0.384487 -20.925949 -3.390466 -1.992414 19.200442 -3.803837 -1.502185 4.381792 0.003799 -0.229168 5.590271 7.961315 1.004071 -2.204712 -3.172813 -0.070723 1.735912 -1.002803 -0.004256 -0.069929 -0.802181 0.160618 -0.479845 -0.804184 0.123488 -0.482624 -3.552857 -1.707597 20.499766 2.899455 -2.371193 6.291627 -0.001238 -0.031386 -0.766037 -8.638696 -2.083548 3.589020 5.366298 -0.010631 -0.622251 0.754921 1.958561 -0.706819 0.036624 0.063792 2.451867 -0.000913 0.100573 2.451955 -0.000112 -0.000013 0.000168 -0.081800 0.088933 -0.297445 1.007127 -0.951696 3.765728 -0.126582 1.503369 -6.994510 -0.000066 0.000002 0.000103 1.575989 0.281607 -4.546325 -1.616861 -1.279223 -7.197203 -3.002040 -4.940462 29.017365 -0.000029 0.000324 33.480061 -0.441787 -0.458728 -72.796136 -0.000060 -0.000072 -21.993995 0.000020 -0.000008 -0.026807 0.000002 -0.000016 0.012749 -0.000096 -0.000109 -34.639902 0.000036 0.000015 0.015168 0.000025 -0.000010 0.012720 -0.000048 -0.000055 -24.223452 0.000013 -0.000013 -0.000048 -0.000089 0.000051 0.000032 7.008897 1.736166 7.534329 0.161085 -0.014088 -0.126176 0.024200 -0.030022 11.786589 -0.136036 -0.002693 -0.092612 0.023241 -0.032346 11.715975 2.380150 -1.568463 -3.625046 0.022818 0.006870 11.753124 -0.089324 0.340643 -4.965863 0.050155 0.014731 11.743132 0.646568 0.597924 -1.496390 -0.004529 -0.052592 11.750683 0.000071 -0.000033 11.750675 
0.000000 0.000000 0.000000 0.000008 0.000000 -0.000000 -0.000000 0.000000 -0.000000 -0.018305 -1.089530 -0.622507 -0.039455 0.055820 0.094213 1.238027 0.502616 27.872875 -0.021938 -0.251132 31.556697 0.471554 -1.412350 8.711320 0.288181 -1.680367 6.775979 0.000674 -0.006958 7.352392 0.166290 0.138541 5.872122 -7.204673 5.035165 4.428015 0.933027 0.012574 -4.728096 1.060297 0.008355 -5.373055 5.630504 -3.631132 0.965980 -0.025622 -0.010005 -0.011884 0.000101 -0.000138 0.000004 2.370440 -4.646835 -14.285153 1.166771 0.124901 5.945352 -0.506874 -0.016418 -2.569199 -4.018275 4.996541 5.787298 -0.019582 0.000032 -0.006085 0.008859 -0.000620 0.038562 0.156844 0.246978 -9.841896 0.917530 -0.020778 6.784390 0.052286 -0.186228 0.019031 -0.084513 1.156395 -2.104592 0.000078 -0.000112 -0.000056 -0.000052 -0.014928 0.015043 0.370154 0.449371 -0.235104 3.787932 -6.006765 6.039710 5.845152 -0.560107 0.135311 3.241485 0.389651 -11.920143 -3.046367 -1.161580 11.133300 -1.709054 -1.843333 -3.075634 0.130946 -0.852699 21.154670 5.983296 1.964099 -10.379109 -2.974512 0.856035 0.220268 -0.996045 -0.004035 -0.123452 -0.802181 0.160618 -0.479845 -0.804184 0.123489 -0.482624 -3.138733 -0.924508 11.073867 4.604633 -2.295066 -1.876419 -0.099020 0.754955 18.645704 -9.485314 1.152488 -6.904747 4.465194 -1.411576 -0.112294 0.713397 1.964263 -0.706028 0.036624 0.063792 2.451867 -0.000913 0.100573 2.451955 0.139664 0.015068 -0.023040 3.422568 -1.678650 6.151889 2.788180 -0.095508 -0.725824 -0.333906 1.299767 -8.302261 -0.000072 0.000000 0.000101 3.229460 0.031216 4.815863 0.911181 -1.331440 -7.082690 -2.627969 -3.766889 17.686514 -0.000029 0.000324 33.480068 -0.441787 -0.458728 -72.796108 -0.000060 -0.000072 -21.993998 0.000020 -0.000008 -0.026807 0.000002 -0.000016 0.012747 -0.000096 -0.000110 -34.639882 0.000035 0.000015 0.015161 0.000025 -0.000010 0.012720 -0.000048 -0.000055 -24.223449 0.000013 -0.000013 -0.000053 -0.000096 0.000039 0.000028 7.108868 -0.563236 13.022725 0.161083 -0.014089 -0.126180 0.024200 -0.030022 11.786588 -0.136056 -0.002741 -0.092614 0.023242 -0.032341 11.715974 2.357188 -1.554366 -3.582918 0.022816 0.006868 11.753130 -0.088867 0.336627 -4.912447 0.050154 0.014732 11.743131 0.526718 0.489561 -1.214033 -0.004529 -0.052592 11.750704 0.000072 -0.000033 11.750677 
0.000000 0.000000 0.000000 0.000008 0.000000 -0.000000 -0.000000 0.000000 -0.000000 -0.027871 -1.997987 -0.748025 -0.092343 0.115514 0.192717 0.836832 -0.063200 27.009336 -0.341415 0.027962 41.926713 0.468189 -1.750963 1.518191 0.276750 -2.019021 1.120646 0.001118 -0.010389 8.647260 0.199666 0.275343 1.442544 -7.774286 4.352833 13.148311 1.035773 0.009254 -5.248827 1.842750 -0.049440 -9.347801 5.032014 -3.003512 1.215592 -0.051455 -0.019792 -0.019916 0.000101 -0.000137 0.000004 3.520776 -4.923202 -4.885405 0.527144 0.041269 2.678366 -0.862792 -0.014339 -4.372185 -3.884096 6.141386 6.020667 -0.037900 0.000032 -0.008394 0.008859 -0.000620 0.038562 0.162701 0.508087 -8.217907 0.917530 -0.020778 6.784389 0.108328 -0.185175 0.017771 -0.115825 0.781893 1.196425 0.000078 -0.000112 -0.000056 -0.000052 -0.014927 0.015041 1.419126 1.610780 -0.877322 14.957885 -16.531506 18.651797 8.361339 -0.906030 0.594630 2.559584 0.281718 -2.688421 -2.542520 -0.366253 2.891284 0.322116 -2.336886 -7.646433 0.300165 -1.227021 31.185933 4.283182 3.346726 -16.354313 -2.778985 1.850921 -1.378748 -0.989148 -0.003726 -0.175918 -0.802181 0.160617 -0.479845 -0.804184 0.123491 -0.482624 -2.583603 -0.195196 1.377973 6.077709 -1.847278 -6.084734 -0.303091 1.232437 31.334220 -9.417632 3.944448 -15.348992 3.595494 -2.998435 0.864112 0.672598 1.969979 -0.705209 0.036623 0.063792 2.451868 -0.000913 0.100574 2.451955 0.517905 0.055562 -0.086029 10.259660 -4.461820 17.911252 6.067806 1.560136 -8.813690 -0.554885 1.093851 -9.577537 -0.000091 -0.000018 0.000100 6.412953 -0.296157 21.721183 5.491123 -1.378108 -6.524576 -2.098699 -2.582360 6.113214 -0.000029 0.000324 33.480078 -0.441787 -0.458728 -72.796129 -0.000059 -0.000072 -21.993998 0.000020 -0.000008 -0.026807 0.000002 -0.000016 0.012747 -0.000096 -0.000110 -34.639878 0.000035 0.000015 0.015165 0.000025 -0.000010 0.012723 -0.000048 -0.000055 -24.223440 0.000013 -0.000013 -0.000051 -0.000107 0.000041 0.000016 8.618244 -4.713371 22.697011 0.161087 -0.014089 -0.126179 0.024202 -0.030022 11.786589 -0.136069 -0.002763 -0.092619 0.023242 -0.032339 11.715974 2.334657 -1.540562 -3.541611 0.022818 0.006870 11.753124 -0.088436 0.332683 -4.860107 0.050154 0.014735 11.743130 0.397618 0.372547 -0.905813 -0.004529 -0.052592 11.750714 0.000071 -0.000033 11.750667 
0.000000 0.000000 0.000000 0.000008 0.000000 -0.000000 -0.000000 0.000000 -0.000000 0.059128 -1.990089 1.837624 -0.147151 0.178811 0.294949 0.206430 -0.871251 25.711129 -0.185497 -0.082585 38.689019 0.609902 -1.879656 13.134043 0.051224 -2.182337 -15.496009 0.001646 -0.013843 9.954970 0.243130 0.354890 -0.809210 -8.224858 4.125085 15.181142 1.800143 -0.044917 -9.130896 1.105541 0.006497 -5.602437 5.354895 -3.183691 -1.073732 -0.074610 -0.029674 -0.029899 0.000101 -0.000137 0.000004 3.821347 -5.152284 -2.707334 -0.425699 -0.015299 -2.157859 0.068408 0.003945 0.347010 -3.947232 6.367618 3.565870 -0.056423 0.000028 -0.010751 0.008859 -0.000620 0.038562 0.161057 0.659125 -8.172637 0.917530 -0.020778 6.784390 0.164926 -0.184071 0.016503 -0.135393 0.547872 3.240634 0.000078 -0.000112 -0.000056 -0.000052 -0.014928 0.015041 3.177719 3.251748 -1.890803 22.162804 -21.455911 26.432738 10.678123 -2.820975 2.943596 1.955845 0.092047 5.814133 -1.961494 0.297381 -4.660732 -0.173626 -3.012187 -7.160948 0.217241 -1.065144 26.748884 4.159418 3.254452 -14.936444 -2.543723 2.805347 -2.942338 -0.982130 -0.003531 -0.228890 -0.802181 0.160617 -0.479845 -0.804184 0.123489 -0.482624 -1.964102 0.394632 -7.580980 5.046374 -1.192686 -4.855284 -0.267001 1.166153 29.493505 -7.573436 3.788637 -17.012398 2.740389 -4.502844 1.574678 0.631513 1.975618 -0.704396 0.036623 0.063792 2.451867 -0.000913 0.100573 2.451954 1.106907 0.117794 -0.184666 14.221759 -5.716632 24.371317 7.897253 2.514123 -13.202556 -0.757909 0.916195 -10.879974 -0.000119 -0.000048 0.000072 8.235759 -0.382857 30.910629 8.031607 -1.261097 -5.090590 -1.465294 -1.518193 -3.950167 -0.000029 0.000324 33.480091 -0.441787 -0.458728 -72.796129 -0.000060 -0.000072 -21.993989 0.000020 -0.000008 -0.026807 0.000002 -0.000016 0.012749 -0.000096 -0.000110 -34.639882 0.000036 0.000015 0.015160 0.000025 -0.000010 0.012718 -0.000048 -0.000055 -24.223443 0.000013 -0.000013 -0.000048 -0.000116 0.000045 0.000023 10.625651 -5.923508 27.588061 0.161085 -0.014086 -0.126175 0.024198 -0.030024 11.786589 -0.136091 -0.002812 -0.092608 0.023241 -0.032336 11.715973 2.311890 -1.526632 -3.499916 0.022818 0.006872 11.753098 -0.088005 0.328713 -4.807231 0.050155 0.014732 11.743119 0.267875 0.253667 -0.594822 -0.004529 -0.052592 11.750712 0.000071 -0.000033 11.750672 
0.000000 0.000000 0.000000 0.000008 0.000000 -0.000000 -0.000000 0.000000 -0.000000 0.116401 -1.985594 3.560600 -0.204237 0.231452 0.383149 -0.616251 -1.823655 24.096351 -0.029935 -0.197127 33.321621 0.979082 -2.077693 30.456503 -0.211497 -2.389631 -27.603719 0.001602 -0.014957 10.371584 0.299175 0.376636 -0.784507 -8.387260 4.301987 14.853843 2.269391 -0.104131 -11.526223 0.634047 0.016957 -3.213265 5.565878 -3.377803 -2.524529 -0.090920 -0.034627 -0.048772 0.000101 -0.000138 0.000004 3.835094 -5.457601 -3.061955 -0.994138 -0.010730 -5.037692 0.667656 0.056457 3.394060 -3.965613 6.595435 1.937485 -0.075150 0.000025 -0.013148 0.008859 -0.000620 0.038562 0.171136 0.685241 -9.959924 0.917530 -0.020778 6.784390 0.222077 -0.183010 0.015214 -0.141708 0.472351 3.913141 0.000078 -0.000112 -0.000055 -0.000052 -0.014928 0.015042 5.659979 5.064357 -3.221635 14.109795 -18.690949 22.973708 13.831717 -8.989430 11.028756 1.523184 -0.110576 12.315988 -1.440820 0.751241 -10.361244 -0.342794 -3.513681 -6.067551 0.163550 -0.940149 23.430769 3.825662 3.221523 -13.408250 -2.242052 3.565008 -4.297207 -0.975144 -0.003441 -0.282380 -0.802181 0.160618 -0.479845 -0.804184 0.123490 -0.482624 -1.437193 0.775606 -14.430675 4.354058 -0.571687 -3.301778 -0.244770 1.122618 28.301360 -6.152292 3.529069 -17.587358 1.853975 -5.595350 1.234752 0.589841 1.981357 -0.703575 0.036623 0.063792 2.451868 -0.000913 0.100573 2.451956 1.871561 0.197061 -0.313596 10.103827 -4.805168 19.403280 9.193829 1.442701 -5.338408 -0.908579 0.789321 -12.224569 -0.000174 -0.000080 0.000123 6.548421 -0.360427 26.824938 8.193759 -0.424337 0.555732 -0.875244 -0.760752 -10.750845 -0.000029 0.000324 33.480074 -0.441787 -0.458728 -72.796129 -0.000060 -0.000072 -21.993991 0.000020 -0.000008 -0.026807 0.000002 -0.000016 0.012747 -0.000096 -0.000110 -34.639882 0.000036 0.000015 0.015161 0.000025 -0.000010 0.012720 -0.000048 -0.000055 -24.223449 0.000013 -0.000013 -0.000050 -0.000136 0.000069 0.000017 10.171553 -6.017560 26.955410 0.161091 -0.014092 -0.126168 0.024201 -0.030021 11.786588 -0.136101 -0.002844 -0.092611 0.023243 -0.032336 11.715976 2.288898 -1.512585 -3.457777 0.022818 0.006871 11.753104 -0.087577 0.324713 -4.753814 0.050154 0.014734 11.743119 0.152889 0.141684 -0.314911 -0.004529 -0.052592 11.750716 0.000072 -0.000033 11.750675 
